<mxfile host="app.diagrams.net" modified="2024-05-15T06:27:47.104Z" agent="Mozilla/5.0 (Windows NT 10.0; Win64; x64) AppleWebKit/537.36 (KHTML, like Gecko) Chrome/124.0.0.0 Safari/537.36" etag="NxmKDfdamagkRaGzfVoO" version="24.4.0" type="github">
  <diagram name="第 1 页" id="yV-b-hinxSaT4w1Jy_Ut">
    <mxGraphModel dx="1167" dy="589" grid="1" gridSize="10" guides="1" tooltips="1" connect="1" arrows="1" fold="1" page="1" pageScale="1" pageWidth="827" pageHeight="1169" math="0" shadow="0">
      <root>
        <mxCell id="0" />
        <mxCell id="1" parent="0" />
        <mxCell id="IPg76YMc0q-WbsNHMPPV-1" value="" style="verticalLabelPosition=bottom;shadow=0;dashed=0;align=center;html=1;verticalAlign=top;shape=mxgraph.electrical.transistors.pmos;pointerEvents=1;" vertex="1" parent="1">
          <mxGeometry x="120" y="180" width="60" height="100" as="geometry" />
        </mxCell>
        <mxCell id="IPg76YMc0q-WbsNHMPPV-2" value="" style="verticalLabelPosition=bottom;shadow=0;dashed=0;align=center;html=1;verticalAlign=top;shape=mxgraph.electrical.transistors.nmos;pointerEvents=1;" vertex="1" parent="1">
          <mxGeometry x="120" y="340" width="60" height="100" as="geometry" />
        </mxCell>
        <mxCell id="IPg76YMc0q-WbsNHMPPV-3" value="" style="verticalLabelPosition=bottom;shadow=0;dashed=0;align=center;html=1;verticalAlign=top;shape=mxgraph.electrical.transistors.pmos;pointerEvents=1;" vertex="1" parent="1">
          <mxGeometry x="120" y="60" width="60" height="100" as="geometry" />
        </mxCell>
        <mxCell id="IPg76YMc0q-WbsNHMPPV-4" value="" style="verticalLabelPosition=bottom;shadow=0;dashed=0;align=center;html=1;verticalAlign=top;shape=mxgraph.electrical.transistors.pmos;pointerEvents=1;" vertex="1" parent="1">
          <mxGeometry x="270" y="180" width="60" height="100" as="geometry" />
        </mxCell>
        <mxCell id="IPg76YMc0q-WbsNHMPPV-5" value="" style="verticalLabelPosition=bottom;shadow=0;dashed=0;align=center;html=1;verticalAlign=top;shape=mxgraph.electrical.transistors.pmos;pointerEvents=1;" vertex="1" parent="1">
          <mxGeometry x="270" y="60" width="60" height="100" as="geometry" />
        </mxCell>
        <mxCell id="IPg76YMc0q-WbsNHMPPV-6" value="" style="verticalLabelPosition=bottom;shadow=0;dashed=0;align=center;html=1;verticalAlign=top;shape=mxgraph.electrical.transistors.nmos;pointerEvents=1;" vertex="1" parent="1">
          <mxGeometry x="270" y="300" width="60" height="100" as="geometry" />
        </mxCell>
        <mxCell id="IPg76YMc0q-WbsNHMPPV-7" value="" style="verticalLabelPosition=bottom;shadow=0;dashed=0;align=center;html=1;verticalAlign=top;shape=mxgraph.electrical.transistors.nmos;pointerEvents=1;" vertex="1" parent="1">
          <mxGeometry x="270" y="430" width="60" height="100" as="geometry" />
        </mxCell>
        <mxCell id="IPg76YMc0q-WbsNHMPPV-8" value="" style="verticalLabelPosition=bottom;shadow=0;dashed=0;align=center;html=1;verticalAlign=top;shape=mxgraph.electrical.transistors.pmos;pointerEvents=1;" vertex="1" parent="1">
          <mxGeometry x="300" y="60" width="290" height="100" as="geometry" />
        </mxCell>
        <mxCell id="IPg76YMc0q-WbsNHMPPV-9" value="" style="verticalLabelPosition=bottom;shadow=0;dashed=0;align=center;html=1;verticalAlign=top;shape=mxgraph.electrical.transistors.pmos;pointerEvents=1;" vertex="1" parent="1">
          <mxGeometry x="600" y="140" width="60" height="100" as="geometry" />
        </mxCell>
        <mxCell id="IPg76YMc0q-WbsNHMPPV-10" value="" style="verticalLabelPosition=bottom;shadow=0;dashed=0;align=center;html=1;verticalAlign=top;shape=mxgraph.electrical.transistors.nmos;pointerEvents=1;" vertex="1" parent="1">
          <mxGeometry x="600" y="300" width="60" height="100" as="geometry" />
        </mxCell>
        <mxCell id="IPg76YMc0q-WbsNHMPPV-11" value="" style="verticalLabelPosition=bottom;shadow=0;dashed=0;align=center;html=1;verticalAlign=top;shape=mxgraph.electrical.transistors.nmos;pointerEvents=1;" vertex="1" parent="1">
          <mxGeometry x="600" y="410" width="60" height="100" as="geometry" />
        </mxCell>
        <mxCell id="IPg76YMc0q-WbsNHMPPV-12" value="" style="verticalLabelPosition=bottom;shadow=0;dashed=0;align=center;html=1;verticalAlign=top;shape=mxgraph.electrical.transistors.pmos;pointerEvents=1;" vertex="1" parent="1">
          <mxGeometry x="710" y="190" width="60" height="100" as="geometry" />
        </mxCell>
        <mxCell id="IPg76YMc0q-WbsNHMPPV-13" value="" style="verticalLabelPosition=bottom;shadow=0;dashed=0;align=center;html=1;verticalAlign=top;shape=mxgraph.electrical.transistors.nmos;pointerEvents=1;" vertex="1" parent="1">
          <mxGeometry x="710" y="400" width="60" height="100" as="geometry" />
        </mxCell>
        <mxCell id="IPg76YMc0q-WbsNHMPPV-16" value="" style="endArrow=none;html=1;rounded=0;entryX=1;entryY=1;entryDx=0;entryDy=0;entryPerimeter=0;" edge="1" parent="1" target="IPg76YMc0q-WbsNHMPPV-3">
          <mxGeometry width="50" height="50" relative="1" as="geometry">
            <mxPoint x="180" y="182.86" as="sourcePoint" />
            <mxPoint x="230" y="132.86" as="targetPoint" />
          </mxGeometry>
        </mxCell>
        <mxCell id="IPg76YMc0q-WbsNHMPPV-17" value="" style="endArrow=none;html=1;rounded=0;entryX=1;entryY=1;entryDx=0;entryDy=0;entryPerimeter=0;exitX=1;exitY=0;exitDx=0;exitDy=0;exitPerimeter=0;" edge="1" parent="1" source="IPg76YMc0q-WbsNHMPPV-2" target="IPg76YMc0q-WbsNHMPPV-1">
          <mxGeometry width="50" height="50" relative="1" as="geometry">
            <mxPoint x="120" y="320" as="sourcePoint" />
            <mxPoint x="170" y="270" as="targetPoint" />
          </mxGeometry>
        </mxCell>
        <mxCell id="IPg76YMc0q-WbsNHMPPV-18" value="" style="endArrow=none;html=1;rounded=0;entryX=1;entryY=1;entryDx=0;entryDy=0;entryPerimeter=0;exitX=1;exitY=0;exitDx=0;exitDy=0;exitPerimeter=0;" edge="1" parent="1" source="IPg76YMc0q-WbsNHMPPV-7" target="IPg76YMc0q-WbsNHMPPV-6">
          <mxGeometry width="50" height="50" relative="1" as="geometry">
            <mxPoint x="270" y="440" as="sourcePoint" />
            <mxPoint x="320" y="390" as="targetPoint" />
          </mxGeometry>
        </mxCell>
        <mxCell id="IPg76YMc0q-WbsNHMPPV-19" value="" style="endArrow=none;html=1;rounded=0;entryX=1;entryY=1;entryDx=0;entryDy=0;entryPerimeter=0;exitX=1;exitY=0;exitDx=0;exitDy=0;exitPerimeter=0;" edge="1" parent="1" source="IPg76YMc0q-WbsNHMPPV-6" target="IPg76YMc0q-WbsNHMPPV-4">
          <mxGeometry width="50" height="50" relative="1" as="geometry">
            <mxPoint x="260" y="320" as="sourcePoint" />
            <mxPoint x="310" y="270" as="targetPoint" />
          </mxGeometry>
        </mxCell>
        <mxCell id="IPg76YMc0q-WbsNHMPPV-20" value="" style="endArrow=none;html=1;rounded=0;entryX=1;entryY=1;entryDx=0;entryDy=0;entryPerimeter=0;exitX=1;exitY=0;exitDx=0;exitDy=0;exitPerimeter=0;" edge="1" parent="1" source="IPg76YMc0q-WbsNHMPPV-4" target="IPg76YMc0q-WbsNHMPPV-5">
          <mxGeometry width="50" height="50" relative="1" as="geometry">
            <mxPoint x="310" y="190" as="sourcePoint" />
            <mxPoint x="360" y="140" as="targetPoint" />
          </mxGeometry>
        </mxCell>
        <mxCell id="IPg76YMc0q-WbsNHMPPV-21" value="" style="endArrow=none;html=1;rounded=0;entryX=1;entryY=1;entryDx=0;entryDy=0;entryPerimeter=0;exitX=1;exitY=0;exitDx=0;exitDy=0;exitPerimeter=0;" edge="1" parent="1" source="IPg76YMc0q-WbsNHMPPV-10" target="IPg76YMc0q-WbsNHMPPV-9">
          <mxGeometry width="50" height="50" relative="1" as="geometry">
            <mxPoint x="600" y="300" as="sourcePoint" />
            <mxPoint x="650" y="250" as="targetPoint" />
          </mxGeometry>
        </mxCell>
        <mxCell id="IPg76YMc0q-WbsNHMPPV-22" value="" style="endArrow=none;html=1;rounded=0;entryX=1;entryY=1;entryDx=0;entryDy=0;entryPerimeter=0;exitX=1;exitY=0;exitDx=0;exitDy=0;exitPerimeter=0;" edge="1" parent="1" source="IPg76YMc0q-WbsNHMPPV-11" target="IPg76YMc0q-WbsNHMPPV-10">
          <mxGeometry width="50" height="50" relative="1" as="geometry">
            <mxPoint x="590" y="430" as="sourcePoint" />
            <mxPoint x="640" y="380" as="targetPoint" />
          </mxGeometry>
        </mxCell>
        <mxCell id="IPg76YMc0q-WbsNHMPPV-23" value="" style="endArrow=none;html=1;rounded=0;entryX=0.995;entryY=0.959;entryDx=0;entryDy=0;entryPerimeter=0;exitX=1;exitY=0;exitDx=0;exitDy=0;exitPerimeter=0;" edge="1" parent="1" source="IPg76YMc0q-WbsNHMPPV-13" target="IPg76YMc0q-WbsNHMPPV-12">
          <mxGeometry width="50" height="50" relative="1" as="geometry">
            <mxPoint x="730" y="340" as="sourcePoint" />
            <mxPoint x="780" y="290" as="targetPoint" />
          </mxGeometry>
        </mxCell>
      </root>
    </mxGraphModel>
  </diagram>
</mxfile>
